<svg version="1.1" xmlns="http://www.w3.org/2000/svg" xmlns:xlink="http://www.w3.org/1999/xlink" width="412.40917" height="164.7026" viewBox="0,0,412.40917,164.7026"><defs><linearGradient x1="76.25001" y1="17.00001" x2="76.25001" y2="116.50001" gradientUnits="userSpaceOnUse" id="color-1"><stop offset="0" stop-color="#00ff40"/><stop offset="1" stop-color="#444dba"/></linearGradient><linearGradient x1="76.25001" y1="17.00001" x2="76.25001" y2="116.50001" gradientUnits="userSpaceOnUse" id="color-2"><stop offset="0" stop-color="#543f00"/><stop offset="1" stop-color="#382929"/></linearGradient><linearGradient x1="126.50001" y1="29.50001" x2="126.50001" y2="114.00001" gradientUnits="userSpaceOnUse" id="color-3"><stop offset="0" stop-color="#444dba"/><stop offset="1" stop-color="#ff4400"/></linearGradient><linearGradient x1="126.50001" y1="29.50001" x2="126.50001" y2="114.00001" gradientUnits="userSpaceOnUse" id="color-4"><stop offset="0" stop-color="#543f00"/><stop offset="1" stop-color="#382929"/></linearGradient><linearGradient x1="123.25" y1="49.50001" x2="123.25" y2="65.50001" gradientUnits="userSpaceOnUse" id="color-5"><stop offset="0" stop-color="#403c30"/><stop offset="1" stop-color="#163338"/></linearGradient><linearGradient x1="157.5" y1="29.00001" x2="157.5" y2="107.50001" gradientUnits="userSpaceOnUse" id="color-6"><stop offset="0" stop-color="#ff00f1"/><stop offset="1" stop-color="#63ba45"/></linearGradient><linearGradient x1="157.5" y1="29.00001" x2="157.5" y2="107.50001" gradientUnits="userSpaceOnUse" id="color-7"><stop offset="0" stop-color="#543f00"/><stop offset="1" stop-color="#382929"/></linearGradient><linearGradient x1="138.5" y1="55.50001" x2="138.5" y2="74.50001" gradientUnits="userSpaceOnUse" id="color-8"><stop offset="0" stop-color="#543f00"/><stop offset="1" stop-color="#382929"/></linearGradient><linearGradient x1="154" y1="53.00001" x2="154" y2="68.00001" gradientUnits="userSpaceOnUse" id="color-9"><stop offset="0" stop-color="#543f00"/><stop offset="1" stop-color="#382929"/></linearGradient><linearGradient x1="192.25" y1="44.00001" x2="192.25" y2="88.50001" gradientUnits="userSpaceOnUse" id="color-10"><stop offset="0" stop-color="#24baa5"/><stop offset="1" stop-color="#deff00"/></linearGradient><linearGradient x1="192.25" y1="44.00001" x2="192.25" y2="88.50001" gradientUnits="userSpaceOnUse" id="color-11"><stop offset="0" stop-color="#543f00"/><stop offset="1" stop-color="#382929"/></linearGradient><linearGradient x1="225.75001" y1="20.00001" x2="225.75001" y2="109.00001" gradientUnits="userSpaceOnUse" id="color-12"><stop offset="0" stop-color="#f8f4ff"/><stop offset="1" stop-color="#163338"/></linearGradient><linearGradient x1="225.75001" y1="20.00001" x2="225.75001" y2="109.00001" gradientUnits="userSpaceOnUse" id="color-13"><stop offset="0" stop-color="#543f00"/><stop offset="1" stop-color="#382929"/></linearGradient><linearGradient x1="295" y1="46" x2="295" y2="112.5" gradientUnits="userSpaceOnUse" id="color-14"><stop offset="0" stop-color="#adca26"/><stop offset="1" stop-color="#fc3093"/></linearGradient><linearGradient x1="295" y1="46" x2="295" y2="112.5" gradientUnits="userSpaceOnUse" id="color-15"><stop offset="0" stop-color="#543f00"/><stop offset="1" stop-color="#382929"/></linearGradient><linearGradient x1="325.5" y1="66" x2="325.5" y2="115.5" gradientUnits="userSpaceOnUse" id="color-16"><stop offset="0" stop-color="#18737d"/><stop offset="1" stop-color="#987bc3"/></linearGradient><linearGradient x1="325.5" y1="66" x2="325.5" y2="115.5" gradientUnits="userSpaceOnUse" id="color-17"><stop offset="0" stop-color="#543f00"/><stop offset="1" stop-color="#382929"/></linearGradient><linearGradient x1="321.5" y1="73" x2="321.5" y2="82" gradientUnits="userSpaceOnUse" id="color-18"><stop offset="0" stop-color="#543f00"/><stop offset="1" stop-color="#382929"/></linearGradient><linearGradient x1="357.75" y1="57" x2="357.75" y2="112.5" gradientUnits="userSpaceOnUse" id="color-19"><stop offset="0" stop-color="#eafaae"/><stop offset="1" stop-color="#ba3080"/></linearGradient><linearGradient x1="357.75" y1="57" x2="357.75" y2="112.5" gradientUnits="userSpaceOnUse" id="color-20"><stop offset="0" stop-color="#543f00"/><stop offset="1" stop-color="#382929"/></linearGradient><linearGradient x1="356.5" y1="72" x2="356.5" y2="84.5" gradientUnits="userSpaceOnUse" id="color-21"><stop offset="0" stop-color="#543f00"/><stop offset="1" stop-color="#382929"/></linearGradient><linearGradient x1="390.75" y1="55" x2="390.75" y2="99" gradientUnits="userSpaceOnUse" id="color-22"><stop offset="0" stop-color="#ba0000"/><stop offset="1" stop-color="#00c2c2"/></linearGradient><linearGradient x1="390.75" y1="55" x2="390.75" y2="99" gradientUnits="userSpaceOnUse" id="color-23"><stop offset="0" stop-color="#543f00"/><stop offset="1" stop-color="#382929"/></linearGradient><linearGradient x1="432.75" y1="55.5" x2="432.75" y2="115" gradientUnits="userSpaceOnUse" id="color-24"><stop offset="0" stop-color="#c7fa10"/><stop offset="1" stop-color="#ba3030"/></linearGradient><linearGradient x1="432.75" y1="55.5" x2="432.75" y2="115" gradientUnits="userSpaceOnUse" id="color-25"><stop offset="0" stop-color="#543f00"/><stop offset="1" stop-color="#382929"/></linearGradient><linearGradient x1="250.5" y1="128" x2="250.5" y2="178" gradientUnits="userSpaceOnUse" id="color-26"><stop offset="0" stop-color="#543f00"/><stop offset="1" stop-color="#382929"/></linearGradient></defs><g transform="translate(-43.48792,-15.0474)"><g data-paper-data="{&quot;isPaintingLayer&quot;:true}" fill-rule="nonzero" stroke-linejoin="miter" stroke-miterlimit="10" stroke-dasharray="" stroke-dashoffset="0" style="mix-blend-mode: normal"><path d="M72.75001,20.00001l34.5,14.5l-6.5,21.5l-12,-15l-29,-1.5l1,52.5l26.5,-20.5v-7l16.5,12.5l-49.5,39.5l-8.5,-18.5l-0.5,-81z" fill="url(#color-1)" stroke="url(#color-2)" stroke-width="3.5" stroke-linecap="round"/><path d="M105.75001,109.50001l1,-62l10.5,-18l30,26.5l-19,19.5l16.5,30.5l-16,1.5l-12.5,-19l-1.5,25.5z" fill="url(#color-3)" stroke="url(#color-4)" stroke-width="3.5" stroke-linecap="round"/><path d="M131.25,56.50001l-16,9v-16z" fill="none" stroke="url(#color-5)" stroke-width="3.5" stroke-linecap="round"/><path d="M128.25,75.00001l18.5,-20l-6,-5.5l17,-20.5l29,78.5h-15l-11.5,-24.5l-16.5,19z" fill="url(#color-6)" stroke="url(#color-7)" stroke-width="3.5" stroke-linecap="round"/><path d="M130.25,74.50001l16.5,-19" fill="none" stroke="url(#color-8)" stroke-width="3.5" stroke-linecap="round"/><path d="M161.75,68.00001h-15.5l9,-15z" fill="none" stroke="url(#color-9)" stroke-width="3.5" stroke-linecap="round"/><path d="M163.25,44.00001l45,0.5l-24,35.5h37l-12.5,8l-27.5,0.5l-6.5,-14l14,-19.5l-19.5,1z" fill="url(#color-10)" stroke="url(#color-11)" stroke-width="3.5" stroke-linecap="round"/><path d="M202.75001,31.00001l11,-9.5l6.5,38l16,-39.5l12.5,17l-25,30.5l1.5,41.5h-10.5l4,-27l3.5,-2.5h-7.5z" fill="url(#color-12)" stroke="url(#color-13)" stroke-width="3.5" stroke-linecap="round"/><path d="M288.25,109.5l-0.5,-51.5l-23.5,0.5l9.5,-12.5l52,6.5l-1,10l-23,-2l-5,52z" fill="url(#color-14)" stroke="url(#color-15)" stroke-width="3.5" stroke-linecap="round"/><path d="M306.25,109.5l4.5,-42l23,-1.5l3,14l-22.5,10l30.5,20.5l-12.5,4l-17.5,-14l-0.5,15z" fill="url(#color-16)" stroke="url(#color-17)" stroke-width="3.5" stroke-linecap="round"/><path d="M316.75,82l-1,-9l11.5,2.5z" fill="none" stroke="url(#color-18)" stroke-width="3.5" stroke-linecap="round"/><path d="M380.25,109l-14,3.5l-8.5,-21.5l-13.5,18l-9,-7.5l23.5,-44.5z" fill="url(#color-19)" stroke="url(#color-20)" stroke-width="3.5" stroke-linecap="round"/><path d="M360.25,84.5l-7.5,-1l4.5,-11.5z" fill="none" stroke="url(#color-21)" stroke-width="3.5" stroke-linecap="round"/><path d="M371.75,55l39,2.5l-1,11.5h-20l-2,18l24.5,-1l-1.5,13l-33.5,-2l-1,-13.5h4l1.5,-19h-12.5z" fill="url(#color-22)" stroke="url(#color-23)" stroke-width="3.5" stroke-linecap="round"/><path d="M438,87.5v-30l11,-2l5,59l-10.5,0.5l-16.5,-29.5l-2.5,27l-13,-0.5l7.5,-53z" fill="url(#color-24)" stroke="url(#color-25)" stroke-width="3.5" stroke-linecap="round"/><path d="M154.5,178v-50h192v50z" fill="url(#color-26)" stroke="#000000" stroke-width="3.5" stroke-linecap="butt"/><text transform="translate(161.5,158.16258) scale(0.47581,0.47581)" font-size="40" xml:space="preserve" fill="#ffffff" fill-rule="nonzero" stroke="none" stroke-width="1" stroke-linecap="butt" stroke-linejoin="miter" stroke-miterlimit="10" stroke-dasharray="" stroke-dashoffset="0" font-family="Curly" font-weight="normal" text-anchor="start" style="mix-blend-mode: normal"><tspan x="0" dy="0">PRESS ANY BUTTON</tspan></text></g></g></svg>